<svg xmlns="http://www.w3.org/2000/svg" id="logo" viewBox="0 0 150 45.1" width="150px" height="45.1px"><style>.st1{fill:#686868}</style><path fill="#ffd037" d="M19.5 33.3c-.8-.8-1.8-1.4-3-1.7-1.1-.3-2.3-.5-3.6-.5-1.2 0-2.4-.2-3.3-.2-.9-.2-1.8-.3-2.4-.5-.5-.2-.6-.5-.6-.9 0-.2 0-.3.2-.3.3-.2.6-.3 1.1-.5s1.1-.3 1.7-.5 1.4-.3 2.1-.5c.9-.2 1.7-.6 2.6-.9.9-.5 1.7-.9 2.4-1.7.8-.6 1.4-1.5 1.8-2.4.5-.9.8-2.1.8-3.3 0-1.4-.2-2.7-.8-3.8-.5-1.1-1.2-2-2.1-2.7-.8-.8-1.8-1.2-2.7-1.5-1.1-.3-2-.5-2.9-.6h-.3c-1.5 0-2.7.3-3.8.8-1.2.5-2.1 1.2-2.9 2s-1.4 1.7-1.7 2.7c-.3.9-.5 2-.5 2.9 0 .8.2 1.5.3 2.3.2.8.6 1.5 1.1 2.3.5.8 1.2 1.4 2 2 .3.2.5.3.8.6-.5.2-.9.3-1.2.5-1.1.5-1.6 1.4-1.7 2.6 0 1.1.3 2 1.1 2.6.3.2.6.3.9.5-1.2.5-2.3 1.2-3.2 2.1-1.1 1.1-1.7 2.5-1.7 4 0 .9.2 1.8.6 2.6s1.1 1.4 1.7 2c.7.3 1.5.8 2.5 1.1.9.3 2.1.5 3.2.5h.3c1.5 0 2.9-.2 4.2-.6 1.5-.5 2.9-.9 3.9-1.7 1.2-.8 2.1-1.5 2.9-2.6s1.2-2.1 1.2-3.3c.2-1.3-.2-2.7-1-3.4zm-9.1-18.9c.8 0 1.4.2 2 .5s1.2.6 1.7 1.1.8 1.1 1.1 1.5c.3.6.3 1.2.3 2s-.2 1.4-.5 2-.6 1.1-1.1 1.5c-.5.5-1.1.8-1.7 1.1-.6.3-1.2.3-1.8.3h-.2c-.8 0-1.4-.2-2-.5s-1.1-.6-1.5-1.1c-.3-.3-.8-.9-.9-1.5-.3-.6-.3-1.4-.3-2s.2-1.5.5-1.9c.3-.6.6-1.1 1.1-1.5.4-.5.9-.8 1.5-1.1.4-.3 1-.4 1.8-.4zm.3 20.1c1.1 0 2 0 2.7.2.8 0 1.5.2 2 .5.5.2.8.5 1.1.8.3.3.3.8.3 1.4 0 .5-.3.9-.6 1.4-.5.6-1.2 1.1-2 1.5-.8.5-1.8.9-2.9 1.1-1.1.3-2 .5-2.9.5h-.1c-1.7 0-2.9-.3-3.6-.9-.6-.5-1.1-1.2-.9-2 0-.8.3-1.4.8-1.8.5-.6 1.1-1.1 1.8-1.4s1.5-.6 2.4-.8c.7-.5 1.3-.5 1.9-.5z"/><path d="M18.6 16.3c.8-2 1.4-3.9 2-5.9-1.8.6-3.8 1.2-5.7 1.7.9 1.8 2.1 3.2 3.7 4.2z"/><g><path d="M34.5 11.4c-.8-.2-1.7-.3-2.4-.3-2.3 0-4.5.8-6.3 2.1-1.7 1.4-3 3.5-3.6 5.9-.8 2.7-.5 5.7.9 8 1.2 2.3 3.5 4.1 6 4.7.8.2 1.7.3 2.4.3 2.3 0 4.5-.8 6.3-2.1 1.7-1.4 3-3.5 3.6-5.9.8-2.7.5-5.7-.9-8-1.2-2.3-3.4-4.1-6-4.7zm-.9 3.6c1.5.5 2.7 1.5 3.6 3 .8 1.5 1.1 3.5.6 5.3-.2.8-.5 1.5-.9 2.1-1.2 1.8-3.3 3-5.4 3-.5 0-1.1 0-1.5-.2-1.5-.5-2.9-1.5-3.6-2.9-.8-1.5-1.1-3.6-.6-5.3.2-.8.5-1.4.8-1.8 1.1-2 3.5-3.3 5.7-3.3.4-.1 1 .1 1.3.1zM56.9 11.4c-.8-.2-1.7-.3-2.4-.3-2.3 0-4.5.8-6.3 2.1-1.7 1.4-3 3.5-3.6 5.9-.8 2.7-.5 5.7.9 8 1.2 2.3 3.5 4.1 6 4.7.8.2 1.7.3 2.4.3 2.3 0 4.5-.8 6.3-2.1 1.7-1.4 3-3.5 3.6-5.9.8-2.7.5-5.7-.9-8-1.1-2.3-3.3-4.1-6-4.7zm-.8 3.6c1.5.5 2.7 1.5 3.6 3 .8 1.5 1.1 3.5.6 5.3-.2.8-.5 1.5-.9 2.1-1.2 1.8-3.3 3-5.4 3-.5 0-1.1 0-1.5-.2-1.5-.5-2.9-1.5-3.6-2.9-.8-1.5-1.1-3.6-.6-5.3.2-.8.5-1.4.8-1.8 1.1-2 3.5-3.3 5.7-3.3.4-.1.9.1 1.3.1zM98.1 11.4c-.8-.2-1.7-.3-2.4-.3-1.2 0-2.4.3-3.6.6V.4c0-.2 0-.3-.2-.3-.2-.2-.2-.2-.3-.2l-2.8.5c-.2 0-.3.2-.3.5v28.2c0 .2 0 .3.2.3.9.9 2 1.5 3 2 .5.2.8.3 1.2.5.8.2 1.7.3 2.4.3 2.3 0 4.5-.8 6.3-2.1 1.7-1.4 3-3.5 3.6-5.9.8-2.7.5-5.7-.9-8-1.4-2.4-3.6-4.2-6.2-4.8zm-.9 3.6c1.5.5 2.7 1.5 3.6 3 .8 1.5 1.1 3.5.6 5.3-.2.8-.5 1.5-.9 2.1-1.2 1.8-3.3 3-5.4 3-.5 0-1.1 0-1.5-.2-.6-.2-1.1-.3-1.5-.6V16.2c1.1-.8 2.4-1.2 3.8-1.2.4-.2 1 0 1.3 0zM149.9 19.8c0-.6-.2-1.1-.3-1.7-.2-.8-.5-1.4-.8-2-1.2-2.3-3.5-4.1-6-4.7-.8-.2-1.7-.3-2.4-.3-2.3 0-4.5.8-6.3 2.1-1.7 1.4-3 3.5-3.6 5.9 0 .2-.2.3-.2.6v.2c-.2.6-.2 1.1-.2 1.7V23c0 .6.2 1.1.3 1.7.2.9.6 1.8.9 2.6 1.2 2.3 3.5 4.1 6 4.7.8.2 1.7.3 2.4.3 3 0 4.7-.5 7.5-1.8.2 0 .2-.2.2-.3v-.3l-1.2-2.7c-.2-.2-.3-.3-.6-.2-2.6 1.2-3.6 1.4-6 1.4-.5 0-1.1 0-1.5-.2-1.5-.5-2.9-1.5-3.6-2.9-.2-.3-.3-.6-.5-1.1l15.5-2.7c.2 0 .3-.2.3-.5.2-.5.2-.9.1-1.2zm-8-4.8c1.5.5 2.7 1.5 3.6 3 0 .2.2.2.2.3l-11.6 2.1c0-.2 0-.3.2-.5.2-.8.5-1.4.8-1.8 1.1-2 3.5-3.3 5.7-3.3.2 0 .8.2 1.1.2zM127.1 18c-.2-.8-.5-1.4-.8-2-1.2-2.3-3.5-4.1-6-4.7-.8-.2-1.7-.3-2.4-.3-2.3 0-4.5.8-6.3 2.1-1.7 1.4-3 3.5-3.6 5.9 0 .2-.2.3-.2.6v.2c-.2.6-.2 1.1-.2 1.7v1.4c0 .6.2 1.1.3 1.7.2.9.6 1.8.9 2.6 1.2 2.3 3.5 4.1 6 4.7.8.2 1.7.3 2.4.3 3 0 4.7-.5 7.5-1.8.2 0 .2-.2.2-.3v-.3l-1.2-2.7c-.2-.2-.3-.3-.6-.2-2.6 1.2-3.6 1.4-6 1.4-.5 0-1.1 0-1.5-.2-1.5-.5-2.9-1.5-3.6-2.9-.2-.3-.3-.6-.5-1.1l15.5-2.7c.2 0 .3-.2.3-.5 0-.5 0-.9-.2-1.4.3-.3.1-.9 0-1.5zm-7.7-3c1.5.5 2.7 1.5 3.6 3 0 .2.2.2.2.3l-11.6 2.1c0-.2 0-.3.2-.5.2-.8.5-1.4.8-1.8 1.1-2 3.5-3.3 5.7-3.3.2 0 .7.2 1.1.2zM83.1 0l-2.8.4c-.2 0-.3.2-.3.5v10.7c-.2 0-.3-.2-.6-.2-.8-.2-1.7-.3-2.4-.3-2.3 0-4.5.8-6.3 2.1-1.7 1.4-3 3.5-3.6 5.9-.8 2.7-.5 5.7.9 8 1.2 2.3 3.5 4.1 6 4.7.8.2 1.7.3 2.4.3 1.4 0 2.7-.3 4.1-.9l2.9.5c.2 0 .3 0 .3-.2.2-.2.2-.2.2-.3V.4c0-.2 0-.3-.2-.3-.4-.1-.6-.1-.6-.1zm-4.8 15c.5.2.9.3 1.4.6V27c-1.1.8-2.3 1.2-3.6 1.2-.5 0-1.1 0-1.5-.2-1.5-.5-2.9-1.5-3.6-2.9-.8-1.5-1.1-3.6-.6-5.3.2-.8.5-1.4.8-1.8 1.1-2 3.5-3.3 5.7-3.3.5.1 1.1.3 1.4.3z" class="st1"/></g></svg>