<?xml version="1.0" encoding="UTF-8"?>
<!DOCTYPE svg PUBLIC "-//W3C//DTD SVG 1.1//EN" "http://www.w3.org/Graphics/SVG/1.1/DTD/svg11.dtd">
<svg xmlns="http://www.w3.org/2000/svg" version="1.1" width="829px" height="115px" style="shape-rendering:geometricPrecision; text-rendering:geometricPrecision; image-rendering:optimizeQuality; fill-rule:evenodd; clip-rule:evenodd" xmlns:xlink="http://www.w3.org/1999/xlink">
<g><path style="opacity:0.925" fill="#151615" d="M 585.5,-0.5 C 589.5,-0.5 593.5,-0.5 597.5,-0.5C 623.609,6.3409 635.442,23.3409 633,50.5C 627.413,71.8792 613.58,83.2125 591.5,84.5C 560.819,80.6489 546.985,63.3155 550,32.5C 555.312,14.3502 567.146,3.35018 585.5,-0.5 Z M 584.5,12.5 C 607.979,11.1511 620.146,22.1511 621,45.5C 618.834,58.6683 611.334,67.1683 598.5,71C 579.704,73.3573 567.538,65.524 562,47.5C 560.461,29.8896 567.961,18.223 584.5,12.5 Z"/></g>
<g><path style="opacity:0.915" fill="#151615" d="M 798.5,-0.5 C 801.833,-0.5 805.167,-0.5 808.5,-0.5C 814.463,0.831952 819.129,4.16528 822.5,9.5C 819.583,12.2049 816.416,14.5382 813,16.5C 808.052,12.319 802.552,11.4857 796.5,14C 792.221,19.033 792.554,23.6997 797.5,28C 804.864,31.6822 812.198,35.3489 819.5,39C 823.652,42.8258 826.652,47.3258 828.5,52.5C 828.5,56.8333 828.5,61.1667 828.5,65.5C 821.794,80.8535 810.127,86.6868 793.5,83C 787.612,81.4373 782.446,78.604 778,74.5C 777.333,73.5 777.333,72.5 778,71.5C 780.557,68.8084 783.391,66.475 786.5,64.5C 794.353,72.2047 803.019,73.3714 812.5,68C 817.833,62 817.833,56 812.5,50C 805.446,45.8061 798.112,42.1394 790.5,39C 777.946,28.0117 777.28,16.345 788.5,4C 791.815,2.1702 795.149,0.670196 798.5,-0.5 Z"/></g>
<g><path style="opacity:0.945" fill="#151615" d="M -0.5,48.5 C -0.5,44.1667 -0.5,39.8333 -0.5,35.5C 11.1667,35.5 22.8333,35.5 34.5,35.5C 34.5,24.1667 34.5,12.8333 34.5,1.5C 38.5,1.5 42.5,1.5 46.5,1.5C 46.5,12.8333 46.5,24.1667 46.5,35.5C 57.8333,35.5 69.1667,35.5 80.5,35.5C 80.5,24.1667 80.5,12.8333 80.5,1.5C 84.5,1.5 88.5,1.5 92.5,1.5C 92.5,13.1667 92.5,24.8333 92.5,36.5C 88.8333,36.5 85.1667,36.5 81.5,36.5C 81.5,40.1667 81.5,43.8333 81.5,47.5C 85.1667,47.5 88.8333,47.5 92.5,47.5C 92.5,59.1667 92.5,70.8333 92.5,82.5C 88.5,82.5 84.5,82.5 80.5,82.5C 80.5,71.1667 80.5,59.8333 80.5,48.5C 69.1667,48.5 57.8333,48.5 46.5,48.5C 46.5,59.8333 46.5,71.1667 46.5,82.5C 42.5,82.5 38.5,82.5 34.5,82.5C 34.5,71.1667 34.5,59.8333 34.5,48.5C 22.8333,48.5 11.1667,48.5 -0.5,48.5 Z"/></g>
<g><path style="opacity:0.938" fill="#151615" d="M 102.5,2.5 C 107.316,1.35034 112.316,1.18368 117.5,2C 123.793,12.752 129.96,23.5854 136,34.5C 142.877,23.9153 149.377,13.0819 155.5,2C 160.5,1.33333 165.5,1.33333 170.5,2C 160.954,17.5879 151.788,33.4213 143,49.5C 142.5,60.495 142.333,71.495 142.5,82.5C 138.5,82.5 134.5,82.5 130.5,82.5C 130.667,71.495 130.5,60.495 130,49.5C 120.97,33.6641 111.803,17.9975 102.5,2.5 Z"/></g>
<g><path style="opacity:0.96" fill="#151615" d="M 182.5,1.5 C 193.838,1.33348 205.172,1.50014 216.5,2C 225.191,5.5296 229.858,12.0296 230.5,21.5C 229.967,26.5673 228.3,31.2339 225.5,35.5C 238.734,49.6868 238.734,63.8535 225.5,78C 223.5,79 221.5,80 219.5,81C 207.242,82.4394 194.909,82.9394 182.5,82.5C 182.5,55.5 182.5,28.5 182.5,1.5 Z M 194.5,13.5 C 200.509,13.3338 206.509,13.5005 212.5,14C 217.535,17.0133 218.702,21.1799 216,26.5C 215.097,27.7014 213.931,28.5348 212.5,29C 206.593,30.3608 200.593,30.8608 194.5,30.5C 194.5,24.8333 194.5,19.1667 194.5,13.5 Z M 194.5,42.5 C 200.509,42.3338 206.509,42.5005 212.5,43C 222.561,47.9599 225.061,55.4599 220,65.5C 218.786,67.0488 217.286,68.2155 215.5,69C 208.589,70.3844 201.589,70.8844 194.5,70.5C 194.5,61.1667 194.5,51.8333 194.5,42.5 Z"/></g>
<g><path style="opacity:0.921" fill="#151615" d="M 248.5,1.5 C 259.838,1.33348 271.172,1.50014 282.5,2C 296.137,8.22285 299.97,18.3895 294,32.5C 291.223,36.9683 287.39,40.135 282.5,42C 290.366,55.0371 298.033,68.2037 305.5,81.5C 300.869,82.6616 296.202,82.8283 291.5,82C 283.874,69.2487 276.374,56.4154 269,43.5C 266.619,42.565 264.119,42.2317 261.5,42.5C 261.5,55.8333 261.5,69.1667 261.5,82.5C 257.167,82.5 252.833,82.5 248.5,82.5C 248.5,55.5 248.5,28.5 248.5,1.5 Z M 261.5,13.5 C 267.176,13.3339 272.843,13.5006 278.5,14C 286.035,18.4853 286.368,23.4853 279.5,29C 273.593,30.3608 267.593,30.8608 261.5,30.5C 261.5,24.8333 261.5,19.1667 261.5,13.5 Z"/></g>
<g><path style="opacity:0.885" fill="#151615" d="M 317.5,1.5 C 321.833,1.5 326.167,1.5 330.5,1.5C 330.5,28.5 330.5,55.5 330.5,82.5C 326.167,82.5 321.833,82.5 317.5,82.5C 317.5,55.5 317.5,28.5 317.5,1.5 Z"/></g>
<g><path style="opacity:0.951" fill="#151615" d="M 348.5,1.5 C 361.171,1.33345 373.838,1.50012 386.5,2C 401.461,5.62641 411.294,14.7931 416,29.5C 420.895,55.89 410.728,73.39 385.5,82C 373.171,82.4999 360.838,82.6665 348.5,82.5C 348.5,55.5 348.5,28.5 348.5,1.5 Z M 360.5,13.5 C 367.841,13.3337 375.174,13.5003 382.5,14C 396.379,17.9042 404.046,27.0708 405.5,41.5C 403.925,56.517 395.925,66.017 381.5,70C 374.508,70.4996 367.508,70.6663 360.5,70.5C 360.5,51.5 360.5,32.5 360.5,13.5 Z"/></g>
<g><path style="opacity:0.97" fill="#151615" d="M 445.5,1.5 C 449.5,1.5 453.5,1.5 457.5,1.5C 457.333,20.5029 457.5,39.5029 458,58.5C 469.086,39.9971 479.919,21.3304 490.5,2.5C 494.783,1.50776 499.116,1.17443 503.5,1.5C 503.333,20.8362 503.5,40.1695 504,59.5C 514.833,40.5 525.667,21.5 536.5,2.5C 541.5,1.16667 546.5,1.16667 551.5,2.5C 536.333,28.8333 521.167,55.1667 506,81.5C 501.263,82.4692 496.43,82.8025 491.5,82.5C 491.667,64.1636 491.5,45.8303 491,27.5C 480.3,45.3703 469.8,63.3703 459.5,81.5C 454.88,82.4933 450.214,82.8266 445.5,82.5C 445.5,55.5 445.5,28.5 445.5,1.5 Z"/></g>
<g><path style="opacity:0.956" fill="#151615" d="M 646.5,1.5 C 657.838,1.33348 669.172,1.50014 680.5,2C 693.154,8.28299 696.987,18.1163 692,31.5C 688.95,36.0509 685.117,39.7176 680.5,42.5C 688.04,55.7486 695.707,68.9153 703.5,82C 698.467,82.8289 693.467,82.6623 688.5,81.5C 681.167,68.8333 673.833,56.1667 666.5,43.5C 663.914,42.52 661.247,42.1866 658.5,42.5C 658.5,55.8333 658.5,69.1667 658.5,82.5C 654.5,82.5 650.5,82.5 646.5,82.5C 646.5,55.5 646.5,28.5 646.5,1.5 Z M 658.5,13.5 C 664.509,13.3338 670.509,13.5005 676.5,14C 682.747,18.5135 683.08,23.5135 677.5,29C 671.258,30.3696 664.925,30.8696 658.5,30.5C 658.5,24.8333 658.5,19.1667 658.5,13.5 Z"/></g>
<g><path style="opacity:0.947" fill="#151615" d="M 714.5,1.5 C 718.5,1.5 722.5,1.5 726.5,1.5C 726.333,12.505 726.5,23.505 727,34.5C 737.167,23.6667 747.333,12.8333 757.5,2C 763.167,1.33333 768.833,1.33333 774.5,2C 762.82,15.0117 751.154,28.0117 739.5,41C 750.443,54.9471 761.776,68.6138 773.5,82C 767.833,82.6667 762.167,82.6667 756.5,82C 748.043,71.2071 739.209,60.7071 730,50.5C 729,51.5 728,52.5 727,53.5C 726.5,63.1609 726.334,72.8276 726.5,82.5C 722.5,82.5 718.5,82.5 714.5,82.5C 714.5,55.5 714.5,28.5 714.5,1.5 Z"/></g>
<g><path style="opacity:0.979" fill="#151615" d="M 828.5,102.5 C 828.5,106.5 828.5,110.5 828.5,114.5C 563.833,114.5 299.167,114.5 34.5,114.5C 34.5,110.5 34.5,106.5 34.5,102.5C 299.167,102.5 563.833,102.5 828.5,102.5 Z"/></g>
</svg>
