<?xml version="1.0" encoding="UTF-8"?>
<!DOCTYPE svg PUBLIC "-//W3C//DTD SVG 1.1//EN" "http://www.w3.org/Graphics/SVG/1.1/DTD/svg11.dtd">
<svg xmlns="http://www.w3.org/2000/svg" version="1.1" width="743px" height="381px" style="shape-rendering:geometricPrecision; text-rendering:geometricPrecision; image-rendering:optimizeQuality; fill-rule:evenodd; clip-rule:evenodd" xmlns:xlink="http://www.w3.org/1999/xlink">
<g><path style="opacity:0.95" fill="#00d192" d="M 60.5,-0.5 C 67.8333,-0.5 75.1667,-0.5 82.5,-0.5C 82.5,20.1667 82.5,40.8333 82.5,61.5C 89.1667,61.5 95.8333,61.5 102.5,61.5C 102.5,68.5 102.5,75.5 102.5,82.5C 95.8333,82.5 89.1667,82.5 82.5,82.5C 82.5,103.167 82.5,123.833 82.5,144.5C 75.1667,144.5 67.8333,144.5 60.5,144.5C 60.5,123.833 60.5,103.167 60.5,82.5C 56.8333,82.5 53.1667,82.5 49.5,82.5C 49.5,75.5 49.5,68.5 49.5,61.5C 53.1667,61.5 56.8333,61.5 60.5,61.5C 60.5,40.8333 60.5,20.1667 60.5,-0.5 Z"/></g>
<g><path style="opacity:0.918" fill="#151615" d="M 142.5,-0.5 C 149.833,-0.5 157.167,-0.5 164.5,-0.5C 164.5,20.5 164.5,41.5 164.5,62.5C 157.5,62.5 150.5,62.5 143.5,62.5C 143.5,61.8333 143.167,61.5 142.5,61.5C 142.5,40.8333 142.5,20.1667 142.5,-0.5 Z"/></g>
<g><path style="opacity:0.945" fill="#151615" d="M 182.5,-0.5 C 190.833,-0.5 199.167,-0.5 207.5,-0.5C 219.139,19.4828 230.806,39.4828 242.5,59.5C 254.194,39.4828 265.861,19.4828 277.5,-0.5C 285.833,-0.5 294.167,-0.5 302.5,-0.5C 286.161,27.3536 269.995,55.3536 254,83.5C 253.5,103.831 253.333,124.164 253.5,144.5C 246.167,144.5 238.833,144.5 231.5,144.5C 231.667,124.164 231.5,103.831 231,83.5C 214.569,55.636 198.402,27.636 182.5,-0.5 Z"/></g>
<g><path style="opacity:0.967" fill="#151615" d="M 324.5,-0.5 C 342.833,-0.5 361.167,-0.5 379.5,-0.5C 403.785,7.72689 412.618,24.3936 406,49.5C 404.337,53.4964 402.171,57.1631 399.5,60.5C 419.38,79.3639 422.88,101.031 410,125.5C 401.478,137.014 389.978,143.181 375.5,144C 358.503,144.5 341.503,144.667 324.5,144.5C 324.5,96.1667 324.5,47.8333 324.5,-0.5 Z M 345.5,20.5 C 356.578,20.0688 367.578,20.5688 378.5,22C 387.129,27.2213 389.296,34.3879 385,43.5C 382.795,46.0402 380.295,48.2068 377.5,50C 366.889,51.3746 356.222,51.8746 345.5,51.5C 345.5,41.1667 345.5,30.8333 345.5,20.5 Z M 345.5,72.5 C 356.91,72.0666 368.244,72.5666 379.5,74C 396.069,83.1436 400.236,96.3103 392,113.5C 389.292,117.104 385.792,119.604 381.5,121C 369.576,122.438 357.576,122.938 345.5,122.5C 345.5,105.833 345.5,89.1667 345.5,72.5 Z"/></g>
<g><path style="opacity:0.962" fill="#151615" d="M 442.5,-0.5 C 461.167,-0.5 479.833,-0.5 498.5,-0.5C 522.449,7.38512 531.282,23.7185 525,48.5C 520.741,59.7591 512.908,67.2591 501.5,71C 515.879,94.9212 529.879,119.088 543.5,143.5C 535.521,144.665 527.521,144.832 519.5,144C 505.455,120.746 491.788,97.2458 478.5,73.5C 473.544,72.5059 468.544,72.1725 463.5,72.5C 463.5,96.5 463.5,120.5 463.5,144.5C 456.5,144.5 449.5,144.5 442.5,144.5C 442.5,96.1667 442.5,47.8333 442.5,-0.5 Z M 463.5,20.5 C 474.578,20.0688 485.578,20.5688 496.5,22C 505.844,27.2515 508.011,34.7515 503,44.5C 501.062,47.1059 498.562,48.9392 495.5,50C 484.898,51.4027 474.231,51.9027 463.5,51.5C 463.5,41.1667 463.5,30.8333 463.5,20.5 Z"/></g>
<g><path style="opacity:0.97" fill="#151615" d="M 565.5,-0.5 C 572.5,-0.5 579.5,-0.5 586.5,-0.5C 586.5,47.8333 586.5,96.1667 586.5,144.5C 579.5,144.5 572.5,144.5 565.5,144.5C 565.5,96.1667 565.5,47.8333 565.5,-0.5 Z"/></g>
<g><path style="opacity:0.962" fill="#151615" d="M 620.5,-0.5 C 640.5,-0.5 660.5,-0.5 680.5,-0.5C 717.582,7.24661 738.248,29.9133 742.5,67.5C 742.5,69.5 742.5,71.5 742.5,73.5C 737.718,114.118 715.051,137.618 674.5,144C 656.503,144.5 638.503,144.667 620.5,144.5C 620.5,96.1667 620.5,47.8333 620.5,-0.5 Z M 641.5,20.5 C 652.838,20.3335 664.172,20.5001 675.5,21C 703.282,25.9464 718.282,42.4464 720.5,70.5C 718.796,97.7032 704.796,114.87 678.5,122C 666.171,122.5 653.838,122.667 641.5,122.5C 641.5,88.5 641.5,54.5 641.5,20.5 Z"/></g>
<g><path style="opacity:0.976" fill="#00d790" d="M -0.5,61.5 C 16.1667,61.5 32.8333,61.5 49.5,61.5C 49.5,68.5 49.5,75.5 49.5,82.5C 32.8333,82.5 16.1667,82.5 -0.5,82.5C -0.5,75.5 -0.5,68.5 -0.5,61.5 Z"/></g>
<g><path style="opacity:0.977" fill="#00cb95" d="M 102.5,61.5 C 115.833,61.5 129.167,61.5 142.5,61.5C 143.167,61.5 143.5,61.8333 143.5,62.5C 143.5,68.8333 143.5,75.1667 143.5,81.5C 143.5,82.1667 143.167,82.5 142.5,82.5C 129.167,82.5 115.833,82.5 102.5,82.5C 102.5,75.5 102.5,68.5 102.5,61.5 Z"/></g>
<g><path style="opacity:0.918" fill="#151615" d="M 143.5,81.5 C 150.5,81.5 157.5,81.5 164.5,81.5C 164.5,102.5 164.5,123.5 164.5,144.5C 157.167,144.5 149.833,144.5 142.5,144.5C 142.5,123.833 142.5,103.167 142.5,82.5C 143.167,82.5 143.5,82.1667 143.5,81.5 Z"/></g>
<g><path style="opacity:0.956" fill="#151615" d="M 311.5,176.5 C 352.534,175.249 379.701,193.915 393,232.5C 400.015,267.134 389.182,294.634 360.5,315C 331.515,331.111 303.182,330.111 275.5,312C 248.805,289.575 239.972,261.409 249,227.5C 260.355,198.756 281.189,181.756 311.5,176.5 Z M 316.5,197.5 C 351.139,199.142 370.139,217.142 373.5,251.5C 370.642,284.192 352.808,302.192 320,305.5C 281.746,299.918 264.412,277.918 268,239.5C 275.438,215.217 291.605,201.217 316.5,197.5 Z"/></g>
<g><path style="opacity:0.951" fill="#151615" d="M 742.5,279.5 C 742.5,281.167 742.5,282.833 742.5,284.5C 740.058,305.787 728.391,319.287 707.5,325C 689.11,328.236 672.443,324.236 657.5,313C 655.112,310.95 653.112,308.616 651.5,306C 656.024,300.812 661.191,296.312 667,292.5C 677.031,302.178 688.864,306.011 702.5,304C 718.875,298.08 724.042,286.914 718,270.5C 716.859,268.391 715.359,266.558 713.5,265C 699.99,257.745 686.323,250.745 672.5,244C 658.382,232.432 654.215,217.932 660,200.5C 670.433,180.207 686.933,172.707 709.5,178C 718.025,180.538 724.858,185.371 730,192.5C 730.507,193.996 730.007,195.163 728.5,196C 723.578,199.378 718.745,202.878 714,206.5C 702.849,194.584 691.849,194.584 681,206.5C 676.732,216.826 679.565,224.326 689.5,229C 702.058,233.946 714.058,239.946 725.5,247C 735.839,255.515 741.505,266.348 742.5,279.5 Z"/></g>
<g><path style="opacity:0.952" fill="#151615" d="M 60.5,179.5 C 67.8333,179.5 75.1667,179.5 82.5,179.5C 82.3333,213.835 82.5,248.168 83,282.5C 102.707,248.251 122.54,214.085 142.5,180C 149.826,179.5 157.159,179.334 164.5,179.5C 164.333,213.835 164.5,248.168 165,282.5C 184.667,248.5 204.333,214.5 224,180.5C 232.421,179.351 240.921,179.184 249.5,180C 221.874,227.418 194.374,274.918 167,322.5C 158.919,323.482 150.752,323.816 142.5,323.5C 142.667,290.165 142.5,256.832 142,223.5C 123,256.5 104,289.5 85,322.5C 76.919,323.482 68.7524,323.816 60.5,323.5C 60.5,275.5 60.5,227.5 60.5,179.5 Z"/></g>
<g><path style="opacity:0.967" fill="#151615" d="M 418.5,179.5 C 437.503,179.333 456.503,179.5 475.5,180C 498.974,188.782 507.141,205.282 500,229.5C 495.414,239.754 487.914,246.92 477.5,251C 491.293,274.752 504.96,298.585 518.5,322.5C 510.521,323.665 502.521,323.832 494.5,323C 480.621,300.079 467.121,276.913 454,253.5C 449.263,252.531 444.43,252.197 439.5,252.5C 439.5,276.167 439.5,299.833 439.5,323.5C 432.5,323.5 425.5,323.5 418.5,323.5C 418.5,275.5 418.5,227.5 418.5,179.5 Z M 439.5,200.5 C 449.839,200.334 460.172,200.5 470.5,201C 481.237,206.21 483.737,214.043 478,224.5C 476.062,227.106 473.562,228.939 470.5,230C 460.172,230.5 449.839,230.666 439.5,230.5C 439.5,220.5 439.5,210.5 439.5,200.5 Z"/></g>
<g><path style="opacity:0.965" fill="#151615" d="M 539.5,179.5 C 546.5,179.5 553.5,179.5 560.5,179.5C 560.333,199.503 560.5,219.503 561,239.5C 579.5,219.667 598,199.833 616.5,180C 626.184,179.168 635.851,179.335 645.5,180.5C 624.35,203.484 603.017,226.317 581.5,249C 602.167,273.667 622.833,298.333 643.5,323C 634.167,323.667 624.833,323.667 615.5,323C 599.512,303.514 583.179,284.348 566.5,265.5C 564.443,267.269 562.61,269.269 561,271.5C 560.5,288.83 560.333,306.163 560.5,323.5C 553.5,323.5 546.5,323.5 539.5,323.5C 539.5,275.5 539.5,227.5 539.5,179.5 Z"/></g>
<g><path style="opacity:0.921" fill="#00d093" d="M 117.5,358.5 C 117.5,365.833 117.5,373.167 117.5,380.5C 98.5,380.5 79.5,380.5 60.5,380.5C 60.5,373.167 60.5,365.833 60.5,358.5C 79.5,358.5 98.5,358.5 117.5,358.5 Z"/></g>
<g><path style="opacity:0.932" fill="#00ca96" d="M 117.5,358.5 C 133.5,358.5 149.5,358.5 165.5,358.5C 165.5,365.833 165.5,373.167 165.5,380.5C 149.5,380.5 133.5,380.5 117.5,380.5C 117.5,373.167 117.5,365.833 117.5,358.5 Z"/></g>
<g><path style="opacity:0.932" fill="#00c499" d="M 165.5,358.5 C 183.167,358.5 200.833,358.5 218.5,358.5C 218.5,365.833 218.5,373.167 218.5,380.5C 200.833,380.5 183.167,380.5 165.5,380.5C 165.5,373.167 165.5,365.833 165.5,358.5 Z"/></g>
<g><path style="opacity:0.932" fill="#00be9c" d="M 218.5,358.5 C 236.5,358.5 254.5,358.5 272.5,358.5C 272.5,365.833 272.5,373.167 272.5,380.5C 254.5,380.5 236.5,380.5 218.5,380.5C 218.5,373.167 218.5,365.833 218.5,358.5 Z"/></g>
<g><path style="opacity:0.932" fill="#00b89f" d="M 272.5,358.5 C 290.5,358.5 308.5,358.5 326.5,358.5C 326.5,365.833 326.5,373.167 326.5,380.5C 308.5,380.5 290.5,380.5 272.5,380.5C 272.5,373.167 272.5,365.833 272.5,358.5 Z"/></g>
<g><path style="opacity:0.932" fill="#00b1a2" d="M 326.5,358.5 C 347.167,358.5 367.833,358.5 388.5,358.5C 388.5,365.833 388.5,373.167 388.5,380.5C 367.833,380.5 347.167,380.5 326.5,380.5C 326.5,373.167 326.5,365.833 326.5,358.5 Z"/></g>
<g><path style="opacity:0.932" fill="#00aba5" d="M 388.5,358.5 C 406.5,358.5 424.5,358.5 442.5,358.5C 442.5,365.833 442.5,373.167 442.5,380.5C 424.5,380.5 406.5,380.5 388.5,380.5C 388.5,373.167 388.5,365.833 388.5,358.5 Z"/></g>
<g><path style="opacity:0.932" fill="#00a5a9" d="M 442.5,358.5 C 460.5,358.5 478.5,358.5 496.5,358.5C 496.5,365.833 496.5,373.167 496.5,380.5C 478.5,380.5 460.5,380.5 442.5,380.5C 442.5,373.167 442.5,365.833 442.5,358.5 Z"/></g>
<g><path style="opacity:0.932" fill="#009fab" d="M 496.5,358.5 C 514.167,358.5 531.833,358.5 549.5,358.5C 549.5,365.833 549.5,373.167 549.5,380.5C 531.833,380.5 514.167,380.5 496.5,380.5C 496.5,373.167 496.5,365.833 496.5,358.5 Z"/></g>
<g><path style="opacity:0.932" fill="#009bad" d="M 549.5,358.5 C 556.5,358.5 563.5,358.5 570.5,358.5C 570.5,365.833 570.5,373.167 570.5,380.5C 563.5,380.5 556.5,380.5 549.5,380.5C 549.5,373.167 549.5,365.833 549.5,358.5 Z"/></g>
<g><path style="opacity:0.932" fill="#0097af" d="M 570.5,358.5 C 584.5,358.5 598.5,358.5 612.5,358.5C 612.5,365.833 612.5,373.167 612.5,380.5C 598.5,380.5 584.5,380.5 570.5,380.5C 570.5,373.167 570.5,365.833 570.5,358.5 Z"/></g>
<g><path style="opacity:0.932" fill="#0092b2" d="M 612.5,358.5 C 630.5,358.5 648.5,358.5 666.5,358.5C 666.5,365.833 666.5,373.167 666.5,380.5C 648.5,380.5 630.5,380.5 612.5,380.5C 612.5,373.167 612.5,365.833 612.5,358.5 Z"/></g>
<g><path style="opacity:0.932" fill="#008bb5" d="M 666.5,358.5 C 684.167,358.5 701.833,358.5 719.5,358.5C 719.5,365.833 719.5,373.167 719.5,380.5C 701.833,380.5 684.167,380.5 666.5,380.5C 666.5,373.167 666.5,365.833 666.5,358.5 Z"/></g>
<g><path style="opacity:0.902" fill="#0088b7" d="M 719.5,358.5 C 727.167,358.5 734.833,358.5 742.5,358.5C 742.5,365.833 742.5,373.167 742.5,380.5C 734.833,380.5 727.167,380.5 719.5,380.5C 719.5,373.167 719.5,365.833 719.5,358.5 Z"/></g>
</svg>
